<svg width="103" height="104" viewBox="0 0 103 104" fill="none" xmlns="http://www.w3.org/2000/svg">
<rect width="2.77151" height="2.83784" rx="1.34409" fill="#C1DAF8"/>
<rect x="11.0862" width="2.77151" height="2.83784" rx="1.34409" fill="#C1DAF8"/>
<rect x="22.1724" width="2.77151" height="2.83784" rx="1.34409" fill="#C1DAF8"/>
<rect x="33.2583" width="2.77155" height="2.83784" rx="1.34409" fill="#C1DAF8"/>
<rect x="44.3445" width="2.77155" height="2.83784" rx="1.34409" fill="#C1DAF8"/>
<rect x="55.4307" width="2.77155" height="2.83784" rx="1.34409" fill="#C1DAF8"/>
<rect x="66.5168" width="2.77155" height="2.83784" rx="1.34409" fill="#C1DAF8"/>
<rect x="77.603" width="2.77151" height="2.83784" rx="1.34409" fill="#C1DAF8"/>
<rect x="88.689" width="2.77155" height="2.83784" rx="1.34409" fill="#C1DAF8"/>
<rect x="99.7749" width="2.77155" height="2.83784" rx="1.34409" fill="#C1DAF8"/>
<rect y="11.3514" width="2.77151" height="2.83783" rx="1.34409" fill="#C1DAF8"/>
<rect x="11.0862" y="11.3514" width="2.77151" height="2.83783" rx="1.34409" fill="#C1DAF8"/>
<rect x="22.1724" y="11.3514" width="2.77151" height="2.83783" rx="1.34409" fill="#C1DAF8"/>
<rect x="33.2583" y="11.3514" width="2.77155" height="2.83783" rx="1.34409" fill="#C1DAF8"/>
<rect x="44.3445" y="11.3514" width="2.77155" height="2.83783" rx="1.34409" fill="#C1DAF8"/>
<rect x="55.4307" y="11.3514" width="2.77155" height="2.83783" rx="1.34409" fill="#C1DAF8"/>
<rect x="66.5168" y="11.3514" width="2.77155" height="2.83783" rx="1.34409" fill="#C1DAF8"/>
<rect x="77.603" y="11.3514" width="2.77151" height="2.83783" rx="1.34409" fill="#C1DAF8"/>
<rect x="88.689" y="11.3514" width="2.77155" height="2.83783" rx="1.34409" fill="#C1DAF8"/>
<rect x="99.7749" y="11.3514" width="2.77155" height="2.83783" rx="1.34409" fill="#C1DAF8"/>
<rect y="22.7027" width="2.77151" height="2.83784" rx="1.34409" fill="#C1DAF8"/>
<rect x="11.0862" y="22.7027" width="2.77151" height="2.83784" rx="1.34409" fill="#C1DAF8"/>
<rect x="22.1724" y="22.7027" width="2.77151" height="2.83784" rx="1.34409" fill="#C1DAF8"/>
<rect x="33.2583" y="22.7027" width="2.77155" height="2.83784" rx="1.34409" fill="#C1DAF8"/>
<rect x="44.3445" y="22.7027" width="2.77155" height="2.83784" rx="1.34409" fill="#C1DAF8"/>
<rect x="55.4307" y="22.7027" width="2.77155" height="2.83784" rx="1.34409" fill="#C1DAF8"/>
<rect x="66.5168" y="22.7027" width="2.77155" height="2.83784" rx="1.34409" fill="#C1DAF8"/>
<rect x="77.603" y="22.7027" width="2.77151" height="2.83784" rx="1.34409" fill="#C1DAF8"/>
<rect x="88.689" y="22.7027" width="2.77155" height="2.83784" rx="1.34409" fill="#C1DAF8"/>
<rect x="99.7749" y="22.7027" width="2.77155" height="2.83784" rx="1.34409" fill="#C1DAF8"/>
<rect y="34.0541" width="2.77151" height="2.83784" rx="1.34409" fill="#C1DAF8"/>
<rect x="11.0862" y="34.0541" width="2.77151" height="2.83784" rx="1.34409" fill="#C1DAF8"/>
<rect x="22.1724" y="34.0541" width="2.77151" height="2.83784" rx="1.34409" fill="#C1DAF8"/>
<rect x="33.2583" y="34.0541" width="2.77155" height="2.83784" rx="1.34409" fill="#C1DAF8"/>
<rect x="44.3445" y="34.0541" width="2.77155" height="2.83784" rx="1.34409" fill="#C1DAF8"/>
<rect x="55.4307" y="34.0541" width="2.77155" height="2.83784" rx="1.34409" fill="#C1DAF8"/>
<rect x="66.5168" y="34.0541" width="2.77155" height="2.83784" rx="1.34409" fill="#C1DAF8"/>
<rect x="77.603" y="34.0541" width="2.77151" height="2.83784" rx="1.34409" fill="#C1DAF8"/>
<rect x="88.689" y="34.0541" width="2.77155" height="2.83784" rx="1.34409" fill="#C1DAF8"/>
<rect x="99.7749" y="34.0541" width="2.77155" height="2.83784" rx="1.34409" fill="#C1DAF8"/>
<rect y="45.4054" width="2.77151" height="2.83783" rx="1.34409" fill="#C1DAF8"/>
<rect x="11.0862" y="45.4054" width="2.77151" height="2.83783" rx="1.34409" fill="#C1DAF8"/>
<rect x="22.1724" y="45.4054" width="2.77151" height="2.83783" rx="1.34409" fill="#C1DAF8"/>
<rect x="33.2583" y="45.4054" width="2.77155" height="2.83783" rx="1.34409" fill="#C1DAF8"/>
<rect x="44.3445" y="45.4054" width="2.77155" height="2.83783" rx="1.34409" fill="#C1DAF8"/>
<rect x="55.4307" y="45.4054" width="2.77155" height="2.83783" rx="1.34409" fill="#C1DAF8"/>
<rect x="66.5168" y="45.4054" width="2.77155" height="2.83783" rx="1.34409" fill="#C1DAF8"/>
<rect x="77.603" y="45.4054" width="2.77151" height="2.83783" rx="1.34409" fill="#C1DAF8"/>
<rect x="88.689" y="45.4054" width="2.77155" height="2.83783" rx="1.34409" fill="#C1DAF8"/>
<rect x="99.7749" y="45.4054" width="2.77155" height="2.83783" rx="1.34409" fill="#C1DAF8"/>
<rect y="56.7568" width="2.77151" height="2.83783" rx="1.34409" fill="#C1DAF8"/>
<rect x="11.0862" y="56.7568" width="2.77151" height="2.83783" rx="1.34409" fill="#C1DAF8"/>
<rect x="22.1724" y="56.7568" width="2.77151" height="2.83783" rx="1.34409" fill="#C1DAF8"/>
<rect x="33.2583" y="56.7568" width="2.77155" height="2.83783" rx="1.34409" fill="#C1DAF8"/>
<rect x="44.3445" y="56.7568" width="2.77155" height="2.83783" rx="1.34409" fill="#C1DAF8"/>
<rect x="55.4307" y="56.7568" width="2.77155" height="2.83783" rx="1.34409" fill="#C1DAF8"/>
<rect x="66.5168" y="56.7568" width="2.77155" height="2.83783" rx="1.34409" fill="#C1DAF8"/>
<rect x="77.603" y="56.7568" width="2.77151" height="2.83783" rx="1.34409" fill="#C1DAF8"/>
<rect x="88.689" y="56.7568" width="2.77155" height="2.83783" rx="1.34409" fill="#C1DAF8"/>
<rect x="99.7749" y="56.7568" width="2.77155" height="2.83783" rx="1.34409" fill="#C1DAF8"/>
<rect y="68.1081" width="2.77151" height="2.83783" rx="1.34409" fill="#C1DAF8"/>
<rect y="79.0561" width="2.77151" height="2.83783" rx="1.34409" fill="#C1DAF8"/>
<rect y="90.0041" width="2.77151" height="2.83783" rx="1.34409" fill="#C1DAF8"/>
<rect y="100.952" width="2.77151" height="2.83783" rx="1.34409" fill="#C1DAF8"/>
<rect x="11.0862" y="68.1081" width="2.77151" height="2.83783" rx="1.34409" fill="#C1DAF8"/>
<rect x="11.0862" y="79.0561" width="2.77151" height="2.83783" rx="1.34409" fill="#C1DAF8"/>
<rect x="11.0862" y="90.0041" width="2.77151" height="2.83783" rx="1.34409" fill="#C1DAF8"/>
<rect x="11.0862" y="100.952" width="2.77151" height="2.83783" rx="1.34409" fill="#C1DAF8"/>
<rect x="22.1724" y="68.1081" width="2.77151" height="2.83783" rx="1.34409" fill="#C1DAF8"/>
<rect x="22.1724" y="79.0561" width="2.77151" height="2.83783" rx="1.34409" fill="#C1DAF8"/>
<rect x="22.1724" y="90.0041" width="2.77151" height="2.83783" rx="1.34409" fill="#C1DAF8"/>
<rect x="22.1724" y="100.952" width="2.77151" height="2.83783" rx="1.34409" fill="#C1DAF8"/>
<rect x="33.2583" y="68.1081" width="2.77155" height="2.83783" rx="1.34409" fill="#C1DAF8"/>
<rect x="33.2583" y="79.0561" width="2.77155" height="2.83783" rx="1.34409" fill="#C1DAF8"/>
<rect x="33.2583" y="90.0041" width="2.77155" height="2.83783" rx="1.34409" fill="#C1DAF8"/>
<rect x="33.2583" y="100.952" width="2.77155" height="2.83783" rx="1.34409" fill="#C1DAF8"/>
<rect x="44.3445" y="68.1081" width="2.77155" height="2.83783" rx="1.34409" fill="#C1DAF8"/>
<rect x="44.3445" y="79.0561" width="2.77155" height="2.83783" rx="1.34409" fill="#C1DAF8"/>
<rect x="44.3445" y="90.0041" width="2.77155" height="2.83783" rx="1.34409" fill="#C1DAF8"/>
<rect x="44.3445" y="100.952" width="2.77155" height="2.83783" rx="1.34409" fill="#C1DAF8"/>
<rect x="55.4307" y="68.1081" width="2.77155" height="2.83783" rx="1.34409" fill="#C1DAF8"/>
<rect x="55.4307" y="79.0561" width="2.77155" height="2.83783" rx="1.34409" fill="#C1DAF8"/>
<rect x="55.4307" y="90.0041" width="2.77155" height="2.83783" rx="1.34409" fill="#C1DAF8"/>
<rect x="55.4307" y="100.952" width="2.77155" height="2.83783" rx="1.34409" fill="#C1DAF8"/>
<rect x="66.5168" y="68.1081" width="2.77155" height="2.83783" rx="1.34409" fill="#C1DAF8"/>
<rect x="66.5168" y="79.0561" width="2.77155" height="2.83783" rx="1.34409" fill="#C1DAF8"/>
<rect x="66.5168" y="90.0041" width="2.77155" height="2.83783" rx="1.34409" fill="#C1DAF8"/>
<rect x="66.5168" y="100.952" width="2.77155" height="2.83783" rx="1.34409" fill="#C1DAF8"/>
<rect x="77.603" y="68.1081" width="2.77151" height="2.83783" rx="1.34409" fill="#C1DAF8"/>
<rect x="77.603" y="79.0561" width="2.77151" height="2.83783" rx="1.34409" fill="#C1DAF8"/>
<rect x="77.603" y="90.0041" width="2.77151" height="2.83783" rx="1.34409" fill="#C1DAF8"/>
<rect x="77.603" y="100.952" width="2.77151" height="2.83783" rx="1.34409" fill="#C1DAF8"/>
<rect x="88.689" y="68.1081" width="2.77155" height="2.83783" rx="1.34409" fill="#C1DAF8"/>
<rect x="88.689" y="79.0561" width="2.77155" height="2.83783" rx="1.34409" fill="#C1DAF8"/>
<rect x="88.689" y="90.0041" width="2.77155" height="2.83783" rx="1.34409" fill="#C1DAF8"/>
<rect x="88.689" y="100.952" width="2.77155" height="2.83783" rx="1.34409" fill="#C1DAF8"/>
<rect x="99.7749" y="68.1081" width="2.77155" height="2.83783" rx="1.34409" fill="#C1DAF8"/>
<rect x="99.7749" y="79.0561" width="2.77155" height="2.83783" rx="1.34409" fill="#C1DAF8"/>
<rect x="99.7749" y="90.0041" width="2.77155" height="2.83783" rx="1.34409" fill="#C1DAF8"/>
<rect x="99.7749" y="100.952" width="2.77155" height="2.83783" rx="1.34409" fill="#C1DAF8"/>
</svg>
