<svg width="67" height="58" viewBox="0 0 67 58" fill="none" xmlns="http://www.w3.org/2000/svg">
<rect width="67" height="58" fill="white"/>
<rect x="32.2585" y="15.7314" width="6.02071" height="26.0898" fill="#EE4D4D"/>
<rect x="48.3138" y="25.766" width="6.02071" height="26.0898" transform="rotate(90 48.3138 25.766)" fill="#EE4D4D"/>
<path d="M13.6419 27.0599C16.0449 11.612 26.6868 2 35.6122 2C53.8064 4.05972 56.8959 26.03 57.5825 34.2708" stroke="black"/>
<circle cx="57.2392" cy="37.7018" r="3.23286" fill="white" stroke="black" stroke-width="0.4"/>
<path d="M58.4624 37.7018C58.4624 38.3773 57.9147 38.9249 57.2392 38.9249C56.5637 38.9249 56.0161 38.3773 56.0161 37.7018C56.0161 37.0262 56.5637 36.4786 57.2392 36.4786C57.9147 36.4786 58.4624 37.0262 58.4624 37.7018Z" fill="black" stroke="black" stroke-width="0.3"/>
<path d="M6.95899 38.2212C6.95899 38.2212 7.48988 34.1936 8.53128 31.6861C9.57268 29.1786 12.1364 27.9064 12.629 27.8094C15.6227 27.4026 17.0648 29.4022 18.0358 30.5826C19.0067 31.763 19.5187 35.2716 19.8374 37.1355" stroke="black" stroke-width="2" stroke-linecap="round"/>
<path d="M6.95811 38.2361C6.50974 43.2364 8.06415 46.8873 8.8974 48.0877C9.33892 48.5977 10.3794 49.638 11.0093 49.7187" stroke="black" stroke-width="0.5"/>
<path d="M19.72 37.0162C20.5957 41.956 19.3775 45.7308 18.6589 47.0007C18.2672 47.5481 17.5836 48.6648 16.9688 48.8014" stroke="black" stroke-width="0.5"/>
<rect x="10.4047" y="48.5585" width="2.51017" height="1.22865" rx="0.614323" transform="rotate(35.0083 10.4047 48.5585)" fill="black"/>
<path d="M17.142 48.8605C17.2912 49.1652 17.1652 49.5332 16.8605 49.6824L15.7096 50.2461C15.4049 50.3953 15.0369 50.2693 14.8877 49.9646C14.7385 49.6599 14.8645 49.2919 15.1692 49.1427L16.3201 48.579C16.6248 48.4298 16.9928 48.5558 17.142 48.8605Z" fill="black"/>
</svg>
