<svg width="58" height="51" viewBox="0 0 58 51" fill="none" xmlns="http://www.w3.org/2000/svg">
<rect x="29.2585" y="14.7314" width="6.02071" height="26.0898" fill="#EE4D4D"/>
<rect x="45.3138" y="24.766" width="6.02071" height="26.0898" transform="rotate(90 45.3138 24.766)" fill="#EE4D4D"/>
<path d="M10.6419 26.0599C13.0449 10.612 23.6868 1 32.6122 1C50.8064 3.05972 53.8959 25.03 54.5825 33.2708" stroke="black"/>
<circle cx="54.2392" cy="36.7018" r="3.23286" fill="white" stroke="black" stroke-width="0.4"/>
<path d="M55.4624 36.7018C55.4624 37.3773 54.9147 37.9249 54.2392 37.9249C53.5637 37.9249 53.0161 37.3773 53.0161 36.7018C53.0161 36.0262 53.5637 35.4786 54.2392 35.4786C54.9147 35.4786 55.4624 36.0262 55.4624 36.7018Z" fill="black" stroke="black" stroke-width="0.3"/>
<path d="M3.95899 37.2212C3.95899 37.2212 4.48988 33.1936 5.53128 30.6861C6.57268 28.1786 9.13643 26.9064 9.62901 26.8094C12.6227 26.4026 14.0648 28.4022 15.0358 29.5826C16.0067 30.763 16.5187 34.2716 16.8374 36.1355" stroke="black" stroke-width="2" stroke-linecap="round"/>
<path d="M3.95811 37.2361C3.50974 42.2364 5.06415 45.8873 5.8974 47.0877C6.33892 47.5977 7.37941 48.638 8.0093 48.7187" stroke="black" stroke-width="0.5"/>
<path d="M16.72 36.0162C17.5957 40.956 16.3775 44.7308 15.6589 46.0007C15.2672 46.5481 14.5836 47.6648 13.9688 47.8014" stroke="black" stroke-width="0.5"/>
<rect x="7.40471" y="47.5585" width="2.51017" height="1.22865" rx="0.614323" transform="rotate(35.0083 7.40471 47.5585)" fill="black"/>
<path d="M14.142 47.8605C14.2912 48.1652 14.1652 48.5332 13.8605 48.6824L12.7096 49.2461C12.4049 49.3953 12.0369 49.2693 11.8877 48.9646C11.7385 48.6599 11.8645 48.2919 12.1692 48.1427L13.3201 47.579C13.6248 47.4298 13.9928 47.5558 14.142 47.8605Z" fill="black"/>
</svg>
