<svg width="51" height="49" viewBox="0 0 51 49" fill="none" xmlns="http://www.w3.org/2000/svg">
<path fill-rule="evenodd" clip-rule="evenodd" d="M3.08903 0.525772H45.159C46.6084 0.525772 47.7874 1.67613 47.7874 3.10032V7.67125C47.7874 9.08938 46.6086 10.2461 45.159 10.2461H3.08903C1.63955 10.2461 0.463867 9.08948 0.463867 7.67125V3.10032C0.463867 1.67613 1.63955 0.525772 3.08903 0.525772ZM3.08903 26.0409H45.159C46.6084 26.0409 47.7874 27.1942 47.7874 28.6124V33.1896C47.7874 34.6077 46.6086 35.7581 45.159 35.7581H3.08903C1.63955 35.7581 0.463867 34.6077 0.463867 33.1896V28.6124C0.463867 27.1942 1.63955 26.0409 3.08903 26.0409ZM26.7521 38.7982H3.08903C1.63955 38.7982 0.463867 39.9486 0.463867 41.37V45.9441C0.463867 47.3623 1.63955 48.5155 3.08903 48.5155H26.7523C28.2079 48.5155 29.3805 47.3623 29.3805 45.9441V41.37C29.3805 39.9486 28.2079 38.7982 26.7521 38.7982ZM3.08903 13.2802H47.7874C49.2399 13.2802 50.4123 14.4337 50.4123 15.8547V20.429C50.4123 21.8471 49.2399 23.0035 47.7874 23.0035H3.08903C1.63955 23.0035 0.463867 21.8471 0.463867 20.429V15.8547C0.463867 14.4337 1.63955 13.2802 3.08903 13.2802Z" fill="white"/>
</svg>
