<svg width="44" height="44" viewBox="0 0 44 44" fill="none" xmlns="http://www.w3.org/2000/svg">
<path d="M35.7279 11.9562C33.818 8.54747 30.0588 6.59226 26.0276 7.23598C24.4453 3.91424 21.1347 1.80489 17.412 1.80489C12.1429 1.80489 7.85587 6.09172 7.85587 11.3618C7.85587 11.5793 7.86444 11.8035 7.88398 12.0369C3.33627 13.0733 0 17.1793 0 21.908C0 27.4961 4.54604 32.0415 10.1341 32.0415H18.1444V30.3678H10.1341C5.46873 30.3678 1.67457 26.573 1.67457 21.9083C1.67457 17.7329 4.79166 14.1368 8.92698 13.545C9.14878 13.5135 9.34818 13.3942 9.48112 13.2133C9.61334 13.0335 9.67052 12.8074 9.63454 12.5868C9.56379 12.1332 9.52805 11.7334 9.52805 11.3625C9.52805 7.01489 13.0663 3.47826 17.4123 3.47826C20.6768 3.47826 23.5562 5.4461 24.7507 8.49077C24.9008 8.87695 25.3108 9.09446 25.7174 9.0006C29.3923 8.15057 32.8453 9.92567 34.4379 13.0907C34.5589 13.3353 34.7959 13.5042 35.0671 13.5426C39.2048 14.1317 42.3288 17.7282 42.3288 21.9076C42.3288 26.5722 38.532 30.3671 33.8666 30.3671H23.2021V32.0407H33.8659C39.4547 32.0407 44 27.4954 44 21.9073C44 17.0447 40.4727 12.8412 35.7279 11.9562Z" fill="#D9D9D9"/>
<path d="M25.8693 21.4892C26.2042 21.155 26.2042 20.6144 25.8693 20.2802L21.0938 15.504C20.9268 15.3377 20.7093 15.255 20.4901 15.255L20.4749 15.2577C20.4706 15.2577 20.4663 15.255 20.462 15.255C20.2402 15.255 20.0213 15.341 19.8583 15.504L15.0828 20.2804C14.7486 20.6147 14.7486 21.1552 15.0828 21.4895C15.4171 21.8244 15.9576 21.8244 16.2919 21.4895L19.606 18.1751V41.3382C19.606 41.8123 19.9879 42.1951 20.462 42.1951C20.9335 42.1951 21.3173 41.8123 21.3173 41.3382V18.1453L24.6604 21.4892C24.9935 21.8244 25.535 21.8244 25.8693 21.4892Z" fill="#D9D9D9"/>
</svg>
